<mxfile host="app.diagrams.net" modified="2023-06-01T06:08:13.641Z" agent="Mozilla/5.0 (Windows NT 10.0; Win64; x64) AppleWebKit/537.36 (KHTML, like Gecko) Chrome/113.0.0.0 Safari/537.36" version="21.3.6" etag="i877sMN4QU90ugafQMDk" type="github">
  <diagram name="ページ1" id="8GNhj7HD4JjDBECFka-T">
    <mxGraphModel>
      <root>
        <mxCell id="0" />
        <mxCell id="1" parent="0" />
      </root>
    </mxGraphModel>
  </diagram>
</mxfile>
